<svg width="1600" height="1000" viewBox="0 0 1600 1000" fill="none" xmlns="http://www.w3.org/2000/svg">
  <rect width="1600" height="1000" fill="#ffffff"/>
  <g transform="translate(514.0,416.4) scale(2.2)">

  <g transform="translate(0,0) scale(1.3846153846153846)">
    <circle cx="26" cy="26" r="24" fill="none" stroke="#111111" stroke-width="4"></circle>
    <path d="M17 34 L17 18 L26 28 L35 18 L35 34" fill="none" stroke="#111111" stroke-width="5" stroke-linecap="round" stroke-linejoin="round"></path>
  </g>
  <g>
    <path d="M100.025 8.090Q100.100 8 100.205 8L100.205 8L101.345 8Q101.495 8 101.495 8.150L101.495 8.150L101.495 18.350Q101.495 18.500 101.345 18.500L101.345 18.500L100.205 18.500Q100.055 18.500 100.055 18.350L100.055 18.350L100.055 10.670Q100.055 10.625 100.025 10.610Q99.995 10.595 99.980 10.640L99.980 10.640L97.835 13.910Q97.775 14 97.655 14L97.655 14L97.085 14Q96.980 14 96.905 13.910L96.905 13.910L94.745 10.670Q94.730 10.625 94.700 10.640Q94.670 10.655 94.670 10.700L94.670 10.700L94.670 18.350Q94.670 18.500 94.520 18.500L94.520 18.500L93.380 18.500Q93.230 18.500 93.230 18.350L93.230 18.350L93.230 8.150Q93.230 8 93.380 8L93.380 8L94.520 8Q94.640 8 94.700 8.090L94.700 8.090L97.325 12.020Q97.340 12.035 97.370 12.035Q97.400 12.035 97.415 12.020L97.415 12.020L100.025 8.090Z" fill="#111111"></path>
    <path d="M117.267 9.095Q117.267 9.245 117.118 9.245L117.118 9.245L111.793 9.245Q111.733 9.245 111.733 9.305L111.733 9.305L111.733 12.530Q111.733 12.590 111.793 12.590L111.793 12.590L115.453 12.590Q115.603 12.590 115.603 12.740L115.603 12.740L115.603 13.685Q115.603 13.835 115.453 13.835L115.453 13.835L111.793 13.835Q111.733 13.835 111.733 13.895L111.733 13.895L111.733 17.195Q111.733 17.255 111.793 17.255L111.793 17.255L117.118 17.255Q117.267 17.255 117.267 17.405L117.267 17.405L117.267 18.350Q117.267 18.500 117.118 18.500L117.118 18.500L110.442 18.500Q110.293 18.500 110.293 18.350L110.293 18.350L110.293 8.150Q110.293 8 110.442 8L110.442 8L117.118 8Q117.267 8 117.267 8.150L117.267 8.150L117.267 9.095Z" fill="#111111"></path>
    <path d="M132.280 8Q132.430 8 132.430 8.150L132.430 8.150L132.430 9.110Q132.430 9.260 132.280 9.260L132.280 9.260L129.400 9.260Q129.340 9.260 129.340 9.320L129.340 9.320L129.340 18.350Q129.340 18.500 129.190 18.500L129.190 18.500L128.050 18.500Q127.900 18.500 127.900 18.350L127.900 18.350L127.900 9.320Q127.900 9.260 127.840 9.260L127.840 9.260L125.095 9.260Q124.945 9.260 124.945 9.110L124.945 9.110L124.945 8.150Q124.945 8 125.095 8L125.095 8L132.280 8Z" fill="#111111"></path>
    <path d="M146.551 18.500Q146.431 18.500 146.386 18.395L146.386 18.395L144.286 13.910Q144.271 13.865 144.226 13.865L144.226 13.865L142.066 13.865Q142.006 13.865 142.006 13.925L142.006 13.925L142.006 18.350Q142.006 18.500 141.856 18.500L141.856 18.500L140.716 18.500Q140.566 18.500 140.566 18.350L140.566 18.350L140.566 8.150Q140.566 8 140.716 8L140.716 8L144.751 8Q145.651 8 146.333 8.375Q147.016 8.750 147.391 9.425Q147.766 10.100 147.766 10.985L147.766 10.985Q147.766 12.035 147.218 12.762Q146.671 13.490 145.696 13.745L145.696 13.745Q145.636 13.775 145.666 13.820L145.666 13.820L147.841 18.320Q147.856 18.350 147.856 18.395L147.856 18.395Q147.856 18.500 147.736 18.500L147.736 18.500L146.551 18.500ZM142.066 9.245Q142.006 9.245 142.006 9.305L142.006 9.305L142.006 12.665Q142.006 12.725 142.066 12.725L142.066 12.725L144.571 12.725Q145.366 12.725 145.846 12.253Q146.326 11.780 146.326 11L146.326 11Q146.326 10.205 145.846 9.725Q145.366 9.245 144.571 9.245L144.571 9.245L142.066 9.245Z" fill="#111111"></path>
    <path d="M159.517 18.635Q158.422 18.635 157.582 18.185Q156.742 17.735 156.277 16.918Q155.812 16.100 155.812 15.035L155.812 15.035L155.812 11.465Q155.812 10.400 156.277 9.590Q156.742 8.780 157.582 8.330Q158.422 7.880 159.517 7.880L159.517 7.880Q160.627 7.880 161.467 8.330Q162.307 8.780 162.772 9.590Q163.237 10.400 163.237 11.465L163.237 11.465L163.237 15.035Q163.237 16.100 162.772 16.918Q162.307 17.735 161.467 18.185Q160.627 18.635 159.517 18.635L159.517 18.635ZM159.517 17.390Q160.537 17.390 161.167 16.760Q161.797 16.130 161.797 15.095L161.797 15.095L161.797 11.450Q161.797 10.400 161.167 9.763Q160.537 9.125 159.517 9.125L159.517 9.125Q158.497 9.125 157.875 9.763Q157.252 10.400 157.252 11.450L157.252 11.450L157.252 15.095Q157.252 16.130 157.875 16.760Q158.497 17.390 159.517 17.390L159.517 17.390Z" fill="#111111"></path>
    <path d="M181.255 18.500Q181.105 18.500 181.105 18.350L181.105 18.350L181.105 8.150Q181.105 8 181.255 8L181.255 8L182.395 8Q182.545 8 182.545 8.150L182.545 8.150L182.545 17.195Q182.545 17.255 182.605 17.255L182.605 17.255L187.780 17.255Q187.930 17.255 187.930 17.405L187.930 17.405L187.930 18.350Q187.930 18.500 187.780 18.500L187.780 18.500L181.255 18.500Z" fill="#111111"></path>
    <path d="M196.153 18.500Q196.003 18.500 196.003 18.350L196.003 18.350L196.003 8.150Q196.003 8 196.153 8L196.153 8L197.293 8Q197.443 8 197.443 8.150L197.443 8.150L197.443 18.350Q197.443 18.500 197.293 18.500L197.293 18.500L196.153 18.500Z" fill="#111111"></path>
    <path d="M212.426 8.150Q212.426 8 212.576 8L212.576 8L213.716 8Q213.866 8 213.866 8.150L213.866 8.150L213.866 18.350Q213.866 18.500 213.716 18.500L213.716 18.500L212.621 18.500Q212.516 18.500 212.441 18.395L212.441 18.395L207.746 10.730Q207.731 10.685 207.701 10.692Q207.671 10.700 207.671 10.745L207.671 10.745L207.686 18.350Q207.686 18.500 207.536 18.500L207.536 18.500L206.396 18.500Q206.246 18.500 206.246 18.350L206.246 18.350L206.246 8.150Q206.246 8 206.396 8L206.396 8L207.506 8Q207.611 8 207.686 8.105L207.686 8.105L212.366 15.770Q212.381 15.815 212.411 15.808Q212.441 15.800 212.441 15.755L212.441 15.755L212.426 8.150Z" fill="#111111"></path>
    <path d="M229.658 9.095Q229.658 9.245 229.508 9.245L229.508 9.245L224.183 9.245Q224.123 9.245 224.123 9.305L224.123 9.305L224.123 12.530Q224.123 12.590 224.183 12.590L224.183 12.590L227.843 12.590Q227.993 12.590 227.993 12.740L227.993 12.740L227.993 13.685Q227.993 13.835 227.843 13.835L227.843 13.835L224.183 13.835Q224.123 13.835 224.123 13.895L224.123 13.895L224.123 17.195Q224.123 17.255 224.183 17.255L224.183 17.255L229.508 17.255Q229.658 17.255 229.658 17.405L229.658 17.405L229.658 18.350Q229.658 18.500 229.508 18.500L229.508 18.500L222.833 18.500Q222.683 18.500 222.683 18.350L222.683 18.350L222.683 8.150Q222.683 8 222.833 8L222.833 8L229.508 8Q229.658 8 229.658 8.150L229.658 8.150L229.658 9.095Z" fill="#111111"></path>
    <path d="M111.624 60.008Q111.624 64.100 109.160 66.300Q106.696 68.500 102.780 68.500L102.780 68.500L94.464 68.500Q94.244 68.500 94.090 68.346Q93.936 68.192 93.936 67.972L93.936 67.972L93.936 38.228Q93.936 38.008 94.090 37.854Q94.244 37.700 94.464 37.700L94.464 37.700L101.812 37.700Q106.212 37.700 108.698 39.812Q111.184 41.924 111.184 46.104L111.184 46.104Q111.184 50.460 108.192 52.440L108.192 52.440Q108.016 52.572 108.148 52.704L108.148 52.704Q111.624 55.168 111.624 60.008L111.624 60.008ZM100.360 43.024Q100.140 43.024 100.140 43.244L100.140 43.244L100.140 50.152Q100.140 50.372 100.360 50.372L100.360 50.372L101.944 50.372Q103.440 50.372 104.276 49.426Q105.112 48.480 105.112 46.764L105.112 46.764Q105.112 44.960 104.298 43.992Q103.484 43.024 101.944 43.024L101.944 43.024L100.360 43.024ZM102.296 63.132Q103.748 63.132 104.584 62.076Q105.420 61.020 105.420 59.084L105.420 59.084Q105.420 57.148 104.584 56.004Q103.748 54.860 102.340 54.860L102.340 54.860L100.360 54.860Q100.140 54.860 100.140 55.080L100.140 55.080L100.140 62.912Q100.140 63.132 100.360 63.132L100.360 63.132L102.296 63.132ZM124.240 68.852Q120.280 68.852 117.882 66.366Q115.484 63.880 115.484 59.744L115.484 59.744L115.484 38.228Q115.484 38.008 115.638 37.854Q115.792 37.700 116.012 37.700L116.012 37.700L121.160 37.700Q121.380 37.700 121.534 37.854Q121.688 38.008 121.688 38.228L121.688 38.228L121.688 60.360Q121.688 61.768 122.392 62.648Q123.096 63.528 124.240 63.528L124.240 63.528Q125.384 63.528 126.066 62.648Q126.748 61.768 126.748 60.360L126.748 60.360L126.748 38.228Q126.748 38.008 126.902 37.854Q127.056 37.700 127.276 37.700L127.276 37.700L132.424 37.700Q132.644 37.700 132.798 37.854Q132.952 38.008 132.952 38.228L132.952 38.228L132.952 59.744Q132.952 63.880 130.554 66.366Q128.156 68.852 124.240 68.852L124.240 68.852ZM138.220 68.500Q138 68.500 137.846 68.346Q137.692 68.192 137.692 67.972L137.692 67.972L137.692 38.228Q137.692 38.008 137.846 37.854Q138 37.700 138.220 37.700L138.220 37.700L143.368 37.700Q143.588 37.700 143.742 37.854Q143.896 38.008 143.896 38.228L143.896 38.228L143.896 67.972Q143.896 68.192 143.742 68.346Q143.588 68.500 143.368 68.500L143.368 68.500L138.220 68.500ZM149.340 68.500Q149.120 68.500 148.966 68.346Q148.812 68.192 148.812 67.972L148.812 67.972L148.812 38.228Q148.812 38.008 148.966 37.854Q149.120 37.700 149.340 37.700L149.340 37.700L154.488 37.700Q154.708 37.700 154.862 37.854Q155.016 38.008 155.016 38.228L155.016 38.228L155.016 62.956Q155.016 63.176 155.236 63.176L155.236 63.176L164.476 63.176Q164.696 63.176 164.850 63.330Q165.004 63.484 165.004 63.704L165.004 63.704L165.004 67.972Q165.004 68.192 164.850 68.346Q164.696 68.500 164.476 68.500L164.476 68.500L149.340 68.500ZM169.084 68.500Q168.864 68.500 168.710 68.346Q168.556 68.192 168.556 67.972L168.556 67.972L168.556 38.228Q168.556 38.008 168.710 37.854Q168.864 37.700 169.084 37.700L169.084 37.700L177.048 37.700Q181.052 37.700 183.472 40.032Q185.892 42.364 185.892 46.236L185.892 46.236L185.892 59.964Q185.892 63.836 183.472 66.168Q181.052 68.500 177.048 68.500L177.048 68.500L169.084 68.500ZM174.760 62.956Q174.760 63.176 174.980 63.176L174.980 63.176L176.960 63.132Q178.148 63.088 178.896 62.120Q179.644 61.152 179.688 59.568L179.688 59.568L179.688 46.632Q179.688 44.960 178.940 43.992Q178.192 43.024 176.916 43.024L176.916 43.024L174.980 43.024Q174.760 43.024 174.760 43.244L174.760 43.244L174.760 62.956ZM206.516 42.496Q206.516 42.716 206.362 42.870Q206.208 43.024 205.988 43.024L205.988 43.024L196.792 43.024Q196.572 43.024 196.572 43.244L196.572 43.244L196.572 50.196Q196.572 50.416 196.792 50.416L196.792 50.416L202.072 50.416Q202.292 50.416 202.446 50.570Q202.600 50.724 202.600 50.944L202.600 50.944L202.600 55.212Q202.600 55.432 202.446 55.586Q202.292 55.740 202.072 55.740L202.072 55.740L196.792 55.740Q196.572 55.740 196.572 55.960L196.572 55.960L196.572 62.956Q196.572 63.176 196.792 63.176L196.792 63.176L205.988 63.176Q206.208 63.176 206.362 63.330Q206.516 63.484 206.516 63.704L206.516 63.704L206.516 67.972Q206.516 68.192 206.362 68.346Q206.208 68.500 205.988 68.500L205.988 68.500L190.896 68.500Q190.676 68.500 190.522 68.346Q190.368 68.192 190.368 67.972L190.368 67.972L190.368 38.228Q190.368 38.008 190.522 37.854Q190.676 37.700 190.896 37.700L190.896 37.700L205.988 37.700Q206.208 37.700 206.362 37.854Q206.516 38.008 206.516 38.228L206.516 38.228L206.516 42.496ZM222.784 68.500Q222.300 68.500 222.168 68.060L222.168 68.060L218.780 55.916Q218.692 55.740 218.560 55.740L218.560 55.740L217.064 55.740Q216.844 55.740 216.844 55.960L216.844 55.960L216.844 67.972Q216.844 68.192 216.690 68.346Q216.536 68.500 216.316 68.500L216.316 68.500L211.168 68.500Q210.948 68.500 210.794 68.346Q210.640 68.192 210.640 67.972L210.640 67.972L210.640 38.228Q210.640 38.008 210.794 37.854Q210.948 37.700 211.168 37.700L211.168 37.700L220.056 37.700Q222.476 37.700 224.368 38.866Q226.260 40.032 227.294 42.144Q228.328 44.256 228.328 46.984L228.328 46.984Q228.328 49.580 227.338 51.560Q226.348 53.540 224.588 54.640L224.588 54.640Q224.500 54.684 224.456 54.750Q224.412 54.816 224.456 54.904L224.456 54.904L228.504 67.884L228.548 68.060Q228.548 68.500 228.064 68.500L228.064 68.500L222.784 68.500ZM217.064 43.024Q216.844 43.024 216.844 43.244L216.844 43.244L216.844 50.768Q216.844 50.988 217.064 50.988L217.064 50.988L219.044 50.988Q220.408 50.988 221.266 49.910Q222.124 48.832 222.124 47.028L222.124 47.028Q222.124 45.180 221.266 44.102Q220.408 43.024 219.044 43.024L219.044 43.024L217.064 43.024Z" fill="#111111"></path>
  </g>

  </g>
</svg>
